<?xml version="1.0" standalone="no"?>
<!DOCTYPE svg PUBLIC "-//W3C//DTD SVG 20010904//EN"
 "http://www.w3.org/TR/2001/REC-SVG-20010904/DTD/svg10.dtd">
<svg version="1.0" xmlns="http://www.w3.org/2000/svg"
 width="700.000000pt" height="700.000000pt" viewBox="0 0 700.000000 700.000000"
 preserveAspectRatio="xMidYMid meet">
<metadata>
Created by potrace 1.14, written by Peter Selinger 2001-2017
</metadata>
<g transform="translate(0.000000,700.000000) scale(0.100000,-0.100000)"
fill="#000000" stroke="none">
<path d="M3818 6805 c-2 -2 -34 -6 -73 -10 -129 -12 -348 -65 -440 -105 -11
-5 -45 -19 -75 -31 -145 -60 -315 -164 -455 -279 -66 -54 -216 -209 -274 -283
-57 -74 -171 -257 -199 -320 -9 -22 -17 -27 -30 -22 -33 14 -246 14 -318 0
-258 -50 -463 -186 -605 -403 -42 -64 -109 -213 -109 -242 0 -12 2 -12 -85
-15 -225 -7 -417 -63 -600 -175 -269 -164 -452 -424 -531 -755 -35 -146 -22
-442 27 -610 51 -177 206 -353 384 -435 136 -62 150 -64 715 -66 283 -1 518
-3 521 -3 3 -1 5 -201 5 -446 l0 -445 -146 0 -146 0 -23 55 c-79 190 -284 319
-494 308 -123 -6 -239 -58 -331 -148 -255 -253 -176 -679 154 -828 245 -110
542 0 658 245 l37 77 233 1 c259 0 282 5 323 61 l24 34 5 544 5 545 345 0
c190 1 352 0 361 -2 15 -3 16 -83 17 -932 l0 -929 -33 -11 c-37 -12 -136 -75
-176 -112 -59 -54 -109 -137 -134 -224 -53 -182 -2 -371 136 -505 97 -95 199
-139 334 -144 288 -12 530 222 527 509 -2 194 -116 374 -290 457 l-72 34 2
929 3 929 495 -1 c272 0 501 -1 508 -1 9 -1 12 -194 12 -928 l0 -928 -73 -34
c-129 -62 -236 -190 -272 -327 -82 -311 142 -622 460 -639 421 -23 687 439
453 790 -50 75 -134 147 -214 182 l-61 26 -1 929 0 928 22 1 c78 3 683 4 694
1 9 -3 12 -118 12 -532 0 -562 1 -572 48 -612 44 -36 60 -38 299 -38 l238 -1
37 -77 c102 -216 346 -330 578 -271 266 68 426 326 375 604 -20 113 -131 266
-237 328 -256 150 -590 50 -716 -215 l-37 -77 -146 -1 -146 0 0 445 c0 400 2
445 16 446 9 0 248 2 531 3 556 3 579 5 701 59 166 73 287 194 364 361 34 72
39 88 55 176 9 45 6 263 -4 309 -58 265 -150 443 -321 615 -111 112 -118 118
-200 171 -173 110 -397 180 -595 185 -35 1 -66 3 -68 5 -3 2 -6 44 -8 92 -7
193 -34 345 -96 528 -125 375 -375 705 -703 931 -197 135 -451 244 -655 280
-14 3 -31 7 -38 9 -7 2 -34 7 -60 10 -26 3 -58 8 -72 12 -25 6 -346 13 -352 8z"/>
</g>
</svg>
